<mxfile host="app.diagrams.net" modified="2023-09-06T01:09:34.319Z" agent="Mozilla/5.0 (Windows NT 10.0; Win64; x64) AppleWebKit/537.36 (KHTML, like Gecko) Chrome/116.0.0.0 Safari/537.36 Edg/116.0.1938.69" version="21.7.2" etag="oqHXfsZON_y5kGZwG6G3" type="github">
  <diagram name="PÃ¡gina-1" id="v3DMzkgKfAFenmg4nY65">
    <mxGraphModel>
      <root>
        <mxCell id="0" />
        <mxCell id="1" parent="0" />
      </root>
    </mxGraphModel>
  </diagram>
</mxfile>
